<svg width="2248" height="546" viewBox="0 0 2248 546" fill="none" xmlns="http://www.w3.org/2000/svg">
<path d="M625.574 204.962C618.294 204.962 612.106 202.414 607.01 197.318C601.914 191.858 599.366 185.488 599.366 178.208C599.366 170.928 601.914 164.74 607.01 159.644C612.106 154.548 618.294 152 625.574 152H651.782C655.058 152 656.696 150.362 656.696 147.086V79.382C656.696 71.01 659.608 63.73 665.432 57.542C671.62 51.354 678.9 48.26 687.272 48.26H698.192C706.564 48.26 713.844 51.354 720.032 57.542C726.22 63.73 729.314 71.01 729.314 79.382V147.086C729.314 150.362 730.952 152 734.228 152H796.472C803.752 152 809.94 154.548 815.036 159.644C820.496 164.74 823.226 170.928 823.226 178.208C823.226 185.488 820.496 191.858 815.036 197.318C809.94 202.414 803.752 204.962 796.472 204.962H734.228C730.952 204.962 729.314 206.418 729.314 209.33V319.622C729.314 343.282 731.862 358.57 736.958 365.486C742.054 372.402 752.61 375.86 768.626 375.86C777.362 375.86 783.914 375.496 788.282 374.768C795.562 374.04 801.932 375.678 807.392 379.682C812.852 383.686 815.582 389.146 815.582 396.062C815.582 404.07 812.852 411.35 807.392 417.902C802.296 424.09 795.926 427.548 788.282 428.276C772.266 429.732 760.254 430.46 752.246 430.46C716.938 430.46 692.186 422.998 677.99 408.074C663.794 392.786 656.696 365.668 656.696 326.72V209.33C656.696 206.418 655.058 204.962 651.782 204.962H625.574ZM1009.23 186.398C990.669 186.398 976.291 191.676 966.099 202.232C956.271 212.424 950.083 228.986 947.535 251.918C947.535 254.83 948.991 256.286 951.903 256.286H1058.92C1061.83 256.286 1063.29 254.83 1063.29 251.918C1061.83 208.238 1043.81 186.398 1009.23 186.398ZM1022.88 430.46C975.199 430.46 938.435 418.084 912.591 393.332C887.111 368.216 874.371 331.452 874.371 283.04C874.371 234.992 885.837 198.41 908.769 173.294C931.701 148.178 964.825 135.62 1008.14 135.62C1088.95 135.62 1130.44 181.484 1132.63 273.212C1132.99 281.948 1129.9 289.228 1123.35 295.052C1116.79 300.876 1109.15 303.788 1100.41 303.788H951.357C948.081 303.788 946.807 305.426 947.535 308.702C950.083 333.09 958.091 350.926 971.559 362.21C985.391 373.13 1005.41 378.59 1031.62 378.59C1048 378.59 1066.2 375.86 1086.22 370.4C1092.77 368.58 1098.78 369.672 1104.24 373.676C1110.06 377.68 1112.97 383.14 1112.97 390.056C1112.97 398.428 1110.42 405.89 1105.33 412.442C1100.6 418.63 1094.23 422.452 1086.22 423.908C1065.83 428.276 1044.72 430.46 1022.88 430.46ZM1222.12 425C1213.75 425 1206.47 421.906 1200.28 415.718C1194.45 409.53 1191.54 402.25 1191.54 393.878V172.202C1191.54 163.83 1194.45 156.55 1200.28 150.362C1206.47 144.174 1213.75 141.08 1222.12 141.08H1229.76C1238.13 141.08 1245.23 143.992 1251.06 149.816C1257.24 155.64 1260.52 162.738 1260.88 171.11V174.932C1260.88 175.296 1261.07 175.478 1261.43 175.478C1262.16 175.478 1262.52 175.296 1262.52 174.932C1284 148.724 1308.2 135.62 1335.14 135.62C1351.52 135.62 1364.62 138.714 1374.45 144.902C1384.64 151.09 1393.56 162.01 1401.21 177.662C1401.21 178.026 1401.57 178.208 1402.3 178.208C1402.66 178.208 1403.03 178.026 1403.39 177.662C1426.32 149.634 1452.17 135.62 1480.92 135.62C1511.13 135.62 1532.79 143.81 1545.9 160.19C1559.36 176.57 1566.1 204.78 1566.1 244.82V393.878C1566.1 402.25 1563 409.53 1556.82 415.718C1550.99 421.906 1543.89 425 1535.52 425H1526.24C1517.87 425 1510.59 421.906 1504.4 415.718C1498.21 409.53 1495.12 402.25 1495.12 393.878V255.74C1495.12 229.168 1492.57 211.696 1487.47 203.324C1482.38 194.952 1472.55 190.766 1457.99 190.766C1448.53 190.766 1439.06 195.134 1429.6 203.87C1420.13 212.606 1415.4 221.342 1415.4 230.078V393.878C1415.4 402.25 1412.31 409.53 1406.12 415.718C1399.93 421.906 1392.65 425 1384.28 425H1375C1366.63 425 1359.35 421.906 1353.16 415.718C1347.33 409.53 1344.42 402.25 1344.42 393.878V255.74C1344.42 229.532 1341.69 212.242 1336.23 203.87C1331.14 195.134 1321.31 190.766 1306.75 190.766C1297.28 190.766 1287.82 195.134 1278.36 203.87C1268.89 212.606 1264.16 221.342 1264.16 230.078V393.878C1264.16 402.25 1261.07 409.53 1254.88 415.718C1248.69 421.906 1241.41 425 1233.04 425H1222.12ZM1710.97 245.912V320.168C1710.97 334.728 1717.16 347.65 1729.53 358.934C1742.27 370.218 1757.02 375.86 1773.76 375.86C1793.05 375.86 1808.34 368.034 1819.62 352.382C1830.91 336.73 1836.55 313.616 1836.55 283.04C1836.55 221.16 1815.62 190.22 1773.76 190.22C1757.02 190.22 1742.27 195.862 1729.53 207.146C1717.16 218.43 1710.97 231.352 1710.97 245.912ZM1670.02 545.12C1661.65 545.12 1654.37 542.026 1648.18 535.838C1641.99 529.65 1638.9 522.37 1638.9 513.998V172.202C1638.9 163.83 1641.99 156.55 1648.18 150.362C1654.37 144.174 1661.65 141.08 1670.02 141.08H1676.57C1685.31 141.08 1692.77 144.174 1698.96 150.362C1705.15 156.186 1708.42 163.466 1708.79 172.202V176.024C1708.79 176.388 1708.97 176.57 1709.33 176.57C1709.7 176.57 1710.06 176.388 1710.42 176.024C1723.53 161.464 1736.63 151.09 1749.74 144.902C1762.84 138.714 1778.13 135.62 1795.6 135.62C1829.82 135.62 1857.12 148.542 1877.5 174.386C1897.88 199.866 1908.08 236.084 1908.08 283.04C1908.08 328.54 1897.34 364.576 1875.86 391.148C1854.75 417.356 1828 430.46 1795.6 430.46C1763.93 430.46 1736.45 418.994 1713.15 396.062C1712.79 395.698 1712.43 395.516 1712.06 395.516C1711.7 395.516 1711.52 395.698 1711.52 396.062V513.998C1711.52 522.37 1708.42 529.65 1702.23 535.838C1696.41 542.026 1689.31 545.12 1680.94 545.12H1670.02ZM2139.23 211.514C2128.67 196.226 2112.65 188.582 2091.18 188.582C2069.7 188.582 2053.5 196.226 2042.58 211.514C2032.03 226.438 2026.75 250.28 2026.75 283.04C2026.75 315.8 2032.03 339.824 2042.58 355.112C2053.5 370.036 2069.7 377.498 2091.18 377.498C2112.65 377.498 2128.67 370.036 2139.23 355.112C2150.15 339.824 2155.61 315.8 2155.61 283.04C2155.61 250.28 2150.15 226.438 2139.23 211.514ZM2192.73 392.24C2168.71 417.72 2134.86 430.46 2091.18 430.46C2047.5 430.46 2013.46 417.72 1989.08 392.24C1965.05 366.396 1953.04 329.996 1953.04 283.04C1953.04 236.084 1965.05 199.866 1989.08 174.386C2013.46 148.542 2047.5 135.62 2091.18 135.62C2134.86 135.62 2168.71 148.542 2192.73 174.386C2217.12 199.866 2229.32 236.084 2229.32 283.04C2229.32 329.996 2217.12 366.396 2192.73 392.24Z" fill="#010103"/>
<rect width="512" height="512" rx="48" fill="#1E139C"/>
<path opacity="0.33" d="M0 48C0 21.4903 21.4903 0 48 0H409V285C409 353.483 353.483 409 285 409H0V48Z" fill="#5A4BFF"/>
<path opacity="0.5" d="M0 48C0 21.4903 21.4903 0 48 0H307V183C307 251.483 251.483 307 183 307H0V48Z" fill="#5A4BFF"/>
<path d="M0 48C0 21.4903 21.4903 0 48 0H204V80C204 148.483 148.483 204 80 204H0V48Z" fill="#5A4BFF" fill-opacity="0.8"/>
</svg>
